<svg width="213" height="40" viewBox="0 0 213 40" fill="none" xmlns="http://www.w3.org/2000/svg">
<path d="M6.66667 10H3.33333V33.3333C3.33333 35.1667 4.83333 36.6667 6.66667 36.6667H30V33.3333H6.66667V10Z" fill="white"/>
<path d="M33.3333 3.33334H13.3333C11.5 3.33334 10 4.83334 10 6.66667V26.6667C10 28.5 11.5 30 13.3333 30H33.3333C35.1667 30 36.6667 28.5 36.6667 26.6667V6.66667C36.6667 4.83334 35.1667 3.33334 33.3333 3.33334ZM33.3333 20L29.1667 17.5L25 20V6.66667H33.3333V20Z" fill="white"/>
<path d="M58.208 21.224V26.264C58.208 26.392 58.28 26.472 58.424 26.504C58.984 26.584 59.512 26.624 60.008 26.624C61.336 26.624 62.304 26.384 62.912 25.904C63.536 25.408 63.848 24.656 63.848 23.648C63.848 22.752 63.488 22.096 62.768 21.68C62.064 21.248 60.888 21.032 59.24 21.032H58.4C58.272 21.032 58.208 21.096 58.208 21.224ZM58.208 14.216V18.32C58.208 18.464 58.272 18.536 58.4 18.536H59.096C60.584 18.536 61.656 18.336 62.312 17.936C62.984 17.52 63.32 16.912 63.32 16.112C63.32 15.344 63.048 14.776 62.504 14.408C61.96 14.04 61.072 13.856 59.84 13.856C59.28 13.856 58.8 13.888 58.4 13.952C58.272 13.984 58.208 14.072 58.208 14.216ZM56.24 29.048C55.856 29.016 55.536 28.856 55.28 28.568C55.024 28.264 54.896 27.912 54.896 27.512V12.968C54.896 12.568 55.024 12.224 55.28 11.936C55.536 11.632 55.864 11.464 56.264 11.432C57.448 11.304 58.592 11.24 59.696 11.24C64.176 11.24 66.416 12.704 66.416 15.632C66.416 16.608 66.088 17.456 65.432 18.176C64.776 18.896 63.912 19.36 62.84 19.568C62.824 19.568 62.816 19.576 62.816 19.592C62.816 19.624 62.824 19.64 62.84 19.64C64.152 19.832 65.176 20.32 65.912 21.104C66.664 21.872 67.04 22.824 67.04 23.96C67.04 25.72 66.464 27.04 65.312 27.92C64.16 28.8 62.368 29.24 59.936 29.24C58.72 29.24 57.488 29.176 56.24 29.048ZM81.2274 20.24C81.2274 16.08 79.7074 14 76.6674 14C73.6274 14 72.1074 16.08 72.1074 20.24C72.1074 24.4 73.6274 26.48 76.6674 26.48C79.7074 26.48 81.2274 24.4 81.2274 20.24ZM82.4994 26.864C81.0754 28.448 79.1314 29.24 76.6674 29.24C74.2034 29.24 72.2514 28.448 70.8114 26.864C69.3874 25.28 68.6754 23.072 68.6754 20.24C68.6754 17.408 69.3874 15.2 70.8114 13.616C72.2514 12.032 74.2034 11.24 76.6674 11.24C79.1314 11.24 81.0754 12.032 82.4994 13.616C83.9394 15.2 84.6594 17.408 84.6594 20.24C84.6594 23.072 83.9394 25.28 82.4994 26.864ZM99.0868 20.24C99.0868 16.08 97.5668 14 94.5268 14C91.4868 14 89.9668 16.08 89.9668 20.24C89.9668 24.4 91.4868 26.48 94.5268 26.48C97.5668 26.48 99.0868 24.4 99.0868 20.24ZM100.359 26.864C98.9348 28.448 96.9908 29.24 94.5268 29.24C92.0628 29.24 90.1108 28.448 88.6708 26.864C87.2468 25.28 86.5348 23.072 86.5348 20.24C86.5348 17.408 87.2468 15.2 88.6708 13.616C90.1108 12.032 92.0628 11.24 94.5268 11.24C96.9908 11.24 98.9348 12.032 100.359 13.616C101.799 15.2 102.519 17.408 102.519 20.24C102.519 23.072 101.799 25.28 100.359 26.864ZM106.584 29C106.216 29 105.896 28.864 105.624 28.592C105.368 28.32 105.24 28 105.24 27.632V12.848C105.24 12.48 105.368 12.16 105.624 11.888C105.896 11.616 106.216 11.48 106.584 11.48H107.232C107.6 11.48 107.92 11.616 108.192 11.888C108.464 12.16 108.6 12.48 108.6 12.848V19.064C108.6 19.08 108.608 19.088 108.624 19.088C108.64 19.088 108.648 19.08 108.648 19.064L113.472 12.584C114 11.848 114.72 11.48 115.632 11.48H116.832C117.104 11.48 117.304 11.608 117.432 11.864C117.56 12.12 117.536 12.352 117.36 12.56L111.84 19.712C111.76 19.824 111.76 19.936 111.84 20.048L117.624 27.896C117.8 28.12 117.824 28.36 117.696 28.616C117.568 28.872 117.36 29 117.072 29H115.872C114.96 29 114.248 28.632 113.736 27.896L108.648 20.696C108.648 20.68 108.64 20.672 108.624 20.672C108.608 20.672 108.6 20.68 108.6 20.696V27.632C108.6 28 108.464 28.32 108.192 28.592C107.92 28.864 107.6 29 107.232 29H106.584ZM124.244 21.608C122.324 20.968 120.932 20.192 120.068 19.28C119.22 18.368 118.796 17.264 118.796 15.968C118.796 14.512 119.284 13.36 120.26 12.512C121.236 11.664 122.604 11.24 124.364 11.24C125.852 11.24 127.148 11.408 128.252 11.744C128.636 11.856 128.94 12.088 129.164 12.44C129.404 12.776 129.524 13.152 129.524 13.568V13.784C129.524 14.088 129.388 14.328 129.116 14.504C128.844 14.664 128.564 14.688 128.276 14.576C127.076 14.112 125.852 13.88 124.604 13.88C123.804 13.88 123.196 14.064 122.78 14.432C122.364 14.8 122.156 15.312 122.156 15.968C122.156 17.12 122.908 17.944 124.412 18.44C126.572 19.128 128.068 19.912 128.9 20.792C129.748 21.672 130.172 22.808 130.172 24.2C130.172 27.56 128.1 29.24 123.956 29.24C122.66 29.24 121.484 29.04 120.428 28.64C120.044 28.496 119.74 28.248 119.516 27.896C119.308 27.544 119.204 27.152 119.204 26.72V26.432C119.204 26.128 119.332 25.912 119.588 25.784C119.844 25.64 120.108 25.632 120.38 25.76C121.436 26.288 122.548 26.552 123.716 26.552C125.748 26.552 126.764 25.784 126.764 24.248C126.764 23.624 126.572 23.112 126.188 22.712C125.804 22.296 125.156 21.928 124.244 21.608ZM133.664 14.264C133.296 14.264 132.976 14.136 132.704 13.88C132.432 13.608 132.296 13.288 132.296 12.92V12.848C132.296 12.48 132.432 12.16 132.704 11.888C132.976 11.616 133.296 11.48 133.664 11.48H143.888C144.256 11.48 144.576 11.616 144.848 11.888C145.12 12.16 145.256 12.48 145.256 12.848V12.92C145.256 13.288 145.12 13.608 144.848 13.88C144.576 14.136 144.256 14.264 143.888 14.264H140.672C140.544 14.264 140.48 14.336 140.48 14.48V27.632C140.48 28 140.344 28.32 140.072 28.592C139.8 28.864 139.48 29 139.112 29H138.44C138.072 29 137.752 28.864 137.48 28.592C137.208 28.32 137.072 28 137.072 27.632V14.48C137.072 14.336 137.008 14.264 136.88 14.264H133.664ZM158.97 20.24C158.97 16.08 157.45 14 154.41 14C151.37 14 149.85 16.08 149.85 20.24C149.85 24.4 151.37 26.48 154.41 26.48C157.45 26.48 158.97 24.4 158.97 20.24ZM160.242 26.864C158.818 28.448 156.874 29.24 154.41 29.24C151.946 29.24 149.994 28.448 148.554 26.864C147.13 25.28 146.418 23.072 146.418 20.24C146.418 17.408 147.13 15.2 148.554 13.616C149.994 12.032 151.946 11.24 154.41 11.24C156.874 11.24 158.818 12.032 160.242 13.616C161.682 15.2 162.402 17.408 162.402 20.24C162.402 23.072 161.682 25.28 160.242 26.864ZM168.435 14.216V19.424C168.435 19.552 168.507 19.616 168.651 19.616H169.851C172.699 19.616 174.123 18.6 174.123 16.568C174.123 14.76 172.803 13.856 170.163 13.856C169.683 13.856 169.179 13.896 168.651 13.976C168.507 14.008 168.435 14.088 168.435 14.216ZM166.491 29C166.123 29 165.803 28.864 165.531 28.592C165.259 28.32 165.123 28 165.123 27.632V12.968C165.123 12.584 165.251 12.24 165.507 11.936C165.763 11.632 166.083 11.464 166.467 11.432C167.827 11.304 169.139 11.24 170.403 11.24C172.755 11.24 174.515 11.68 175.683 12.56C176.851 13.424 177.435 14.648 177.435 16.232C177.435 17.368 177.123 18.368 176.499 19.232C175.891 20.096 175.067 20.704 174.027 21.056C174.011 21.056 174.003 21.064 174.003 21.08C174.003 21.112 174.011 21.128 174.027 21.128C174.795 21.608 175.451 22.552 175.995 23.96L177.435 27.728C177.547 28.032 177.507 28.32 177.315 28.592C177.139 28.864 176.891 29 176.571 29H175.827C175.411 29 175.035 28.888 174.699 28.664C174.363 28.424 174.123 28.112 173.979 27.728L172.635 24.032C172.347 23.264 172.019 22.76 171.651 22.52C171.283 22.28 170.651 22.16 169.755 22.16H168.651C168.507 22.16 168.435 22.232 168.435 22.376V27.632C168.435 28 168.299 28.32 168.027 28.592C167.771 28.864 167.459 29 167.091 29H166.491ZM181.702 29C181.334 29 181.014 28.864 180.742 28.592C180.47 28.32 180.334 28 180.334 27.632V12.848C180.334 12.48 180.47 12.16 180.742 11.888C181.014 11.616 181.334 11.48 181.702 11.48H189.862C190.23 11.48 190.55 11.616 190.822 11.888C191.094 12.16 191.23 12.48 191.23 12.848C191.23 13.216 191.094 13.536 190.822 13.808C190.55 14.064 190.23 14.192 189.862 14.192H183.91C183.766 14.192 183.694 14.264 183.694 14.408V18.272C183.694 18.416 183.766 18.488 183.91 18.488H189.454C189.822 18.488 190.126 18.616 190.366 18.872C190.622 19.128 190.75 19.432 190.75 19.784C190.75 20.136 190.622 20.44 190.366 20.696C190.126 20.936 189.822 21.056 189.454 21.056H183.91C183.766 21.056 183.694 21.128 183.694 21.272V26.072C183.694 26.216 183.766 26.288 183.91 26.288H189.862C190.23 26.288 190.55 26.424 190.822 26.696C191.094 26.952 191.23 27.264 191.23 27.632C191.23 28 191.094 28.32 190.822 28.592C190.55 28.864 190.23 29 189.862 29H181.702Z" fill="white"/>
</svg>
